<?xml version="1.0" encoding="UTF-8"?>
<svg version="1.1" viewBox="0 0 2380 800" xmlns="http://www.w3.org/2000/svg">
 <g transform="translate(-565.91 20.098)">
  <path d="m1680 95.017c-37.187-1.6284-76.143-10.189-116.19-32.376-95.949-53.154-337.9-82.727-410.1-82.739-203.38-0.04605-403.6 6.7784-587.8 34.894l6.1155 137.78c52.651 19.241 68.693 55.181 75.904 98.567 33.234 199.97 79.819 370.03 166.56 439.95 61.6 49.661 139 92.932 283.83 88.494 154.28-4.7273 318.18-47.113 398.58-139.94 70.587-81.49 144.21-206.86 170.87-343.9 10.045-51.635 46.588-74.465 88.134-74.465s78.09 22.83 88.134 74.465c26.66 137.04 100.29 262.41 170.87 343.9 80.402 92.823 244.3 135.21 398.58 139.94 144.83 4.4377 222.23-38.833 283.83-88.494 86.738-69.927 133.32-239.98 166.56-439.95 7.2106-43.386 23.253-79.326 75.904-98.567l6.1154-137.78c-184.21-28.116-384.43-34.94-587.8-34.894-72.2 0.01151-314.15 29.584-410.1 82.739-40.05 22.187-79.007 30.748-116.19 32.376-50.554 2.2138-101.25 2.2138-151.81 0zm-592.12-45.686c44.927-0.08058 90.426 1.0061 133.46 0.35916 37.24-0.55946 293.81-7.56 335.27 146.05 39.517 146.42-19.1 332.57-143.89 437.79-86.953 73.32-429.15 152.89-563.34-4.3168-91.974-107.75-111.43-205.51-121.23-341.03-6.2064-85.851 15.884-173.45 156.12-218 55.721-17.701 128.73-20.734 203.61-20.864zm1179.2 0c10.661-0.05756 18.728 0.29009 23.383 0.35916 43.035 0.64694 88.534-0.43974 133.46-0.35916 74.879 0.13008 147.89 3.1636 203.61 20.864 140.24 44.55 162.33 132.15 156.12 218-9.797 135.52-29.256 233.28-121.23 341.03-134.19 157.2-476.39 77.637-563.34 4.3168-124.79-105.23-183.41-291.38-143.89-437.79 36.276-134.41 237.26-146.03 311.89-146.41zm-1641.1 32.376h104.68v24.822h-104.68zm2155.2 0h104.68v24.822h-104.68z"/>
 </g>
</svg>
