<svg xmlns="http://www.w3.org/2000/svg" viewBox="0 0 115.66 115.66"><defs><style>.cls-1{fill:#3194d0;}.cls-2{fill:#fff;}</style></defs><title>Asset 13</title><g id="Layer_2" data-name="Layer 2"><g id="Layer_1-2" data-name="Layer 1"><rect class="cls-1" width="115.66" height="115.66" rx="5.67" ry="5.67"/><path class="cls-2" d="M45.21,48c0-4.89-.06-9.78,0-14.66a11,11,0,0,1,5.56-9.51,13.1,13.1,0,0,1,16.42,2,10.46,10.46,0,0,1,3.06,7.37c0,9.8,0,19.6,0,29.4a11,11,0,0,1-5.54,9.59,13.11,13.11,0,0,1-16.43-2,11,11,0,0,1-3.12-7.95c0-4.76,0-9.51,0-14.27Z"/><path class="cls-2" d="M55.57,89V82.59a45.91,45.91,0,0,1-5-1.47c-6.88-2.89-11-8.14-12.68-15.33a24.17,24.17,0,0,1-.53-5c-.07-3.93,0-7.86,0-11.78v-.81H42c0,.27,0,.52,0,.78,0,4.17-.13,8.34.05,12.5C42.33,68,45.27,73,51.1,76a15.14,15.14,0,0,0,19.05-4.65,17.51,17.51,0,0,0,3.49-10.68q0-5.83,0-11.65v-.82h4.58a3.24,3.24,0,0,1,.05.43c0,4.43.12,8.86,0,13.29-.34,9.66-6.93,18-16.13,20.13-.53.12-1.06.21-1.62.33V89h9.23v4.9H45.89V89Z"/></g></g></svg>